<?xml version="1.0" encoding="UTF-8"?>
<svg xmlns="http://www.w3.org/2000/svg" xmlns:xlink="http://www.w3.org/1999/xlink" viewBox="0 0 1566 288">
  <defs>
    <style>
      .cls-1 {
        fill: #000;
      }

      .cls-1, .cls-2 {
        stroke-width: 0px;
      }

      .cls-2 {
        fill: url(#linear-gradient);
        opacity: .5;
      }

      .cls-3 {
        opacity: .45;
      }
    </style>
    <linearGradient id="linear-gradient" x1="-3.45" y1="182.3" x2="215.06" y2="123.75" gradientUnits="userSpaceOnUse">
      <stop offset="0" stop-color="#000"/>
      <stop offset="1" stop-color="#000" stop-opacity=".5"/>
    </linearGradient>
  </defs>
  <g id="Layer_2" data-name="Layer 2">
    <g class="cls-3">
      <path class="cls-1" d="M319.46,54.62c0-9.63,7.84-17.47,17.47-17.47s17.47,7.84,17.47,17.47-7.84,17.47-17.47,17.47-17.47-7.84-17.47-17.47ZM352.38,202.69h-30.69v-116.7h30.69v116.7Z"/>
      <path class="cls-1" d="M381.72,168.42c13.66,8.96,25.54,13.22,37.86,13.22,13.66,0,22.62-4.93,22.62-12.32,0-6.05-4.48-9.41-14.56-10.98l-22.4-3.36c-23.07-3.58-35.39-15.01-35.39-33.82,0-22.62,18.82-36.96,48.61-36.96,17.02,0,33.38,4.93,47.94,14.56l-14.78,19.71c-12.77-7.62-24.19-11.2-36.06-11.2-11.2,0-18.37,4.48-18.37,11.42,0,6.27,4.48,9.41,15.9,10.98l22.4,3.36c22.85,3.36,35.62,15.23,35.62,33.38,0,21.95-21.73,38.53-51.07,38.53-21.28,0-40.32-5.6-53.54-16.13l15.23-20.38Z"/>
      <path class="cls-1" d="M544.79,204.93c-35.39,0-62.72-26.43-62.72-60.48s26.21-60.48,60.03-60.48,57.79,26.88,57.79,62.72v8.06h-86.91c4.26,14.56,17.02,24.42,33.15,24.42,10.3,0,19.49-3.36,25.76-9.41l20.16,18.37c-14.34,11.65-28.67,16.8-47.26,16.8ZM512.76,132.8h57.12c-3.81-13.89-15.01-23.52-28.45-23.52-14.11,0-24.86,9.18-28.67,23.52Z"/>
      <path class="cls-1" d="M614.23,143.55c0-33.15,26.43-59.36,60.03-59.36,11.65,0,22.4,3.36,31.58,9.41v-7.62h30.24v116.7c0,30.91-20.38,48.16-57.79,48.16-17.92,0-34.94-3.58-48.61-10.53l10.75-23.97c12.77,6.27,24.86,9.41,37.18,9.41,18.37,0,27.78-8.06,27.78-23.3v-9.63c-9.18,6.94-20.38,10.53-32.03,10.53-32.93,0-59.14-26.43-59.14-59.81ZM678.07,177.38c10.98,0,20.38-3.81,27.33-10.53v-45.92c-6.72-6.5-16.58-10.53-27.1-10.53-19.04,0-33.82,14.56-33.82,33.15s14.56,33.82,33.6,33.82Z"/>
      <path class="cls-1" d="M793.66,203.81l-45.47-117.82h33.82l28.9,79.52,33.15-79.52h33.15l-53.76,125.89c-12.1,28.22-26.21,38.98-51.74,38.98-5.38,0-10.53-.45-13.66-1.34v-26.43c3.14.67,6.05.9,10.75.9,10.98,0,18.59-5.38,23.07-15.9l1.79-4.26Z"/>
      <path class="cls-1" d="M942.17,204.93c-35.39,0-62.72-26.43-62.72-60.48s26.21-60.48,60.03-60.48,57.79,26.88,57.79,62.72v8.06h-86.91c4.26,14.56,17.02,24.42,33.15,24.42,10.3,0,19.49-3.36,25.76-9.41l20.16,18.37c-14.34,11.65-28.67,16.8-47.26,16.8ZM910.13,132.8h57.12c-3.81-13.89-15.01-23.52-28.45-23.52-14.11,0-24.86,9.18-28.67,23.52Z"/>
      <path class="cls-1" d="M1101.88,165.06l18.37,19.04c-12.1,13.22-29.57,20.83-47.49,20.83-34.5,0-61.15-26.43-61.15-60.48s26.66-60.7,61.15-60.7c18.59,0,36.29,7.62,48.38,20.83l-18.82,19.94c-8.51-9.41-17.92-14.11-28.9-14.11-17.7,0-31.36,14.78-31.36,34.05s13.89,33.6,32.03,33.6c10.53,0,19.49-4.03,27.78-12.99Z"/>
      <path class="cls-1" d="M1136.15,45.89l30.69-6.72v56c8.96-7.39,19.94-11.42,32.7-11.42,27.1,0,46.14,19.04,46.14,46.37v72.58h-30.69v-68.1c0-14.78-9.41-24.42-24.19-24.42-10.3,0-18.59,4.03-23.97,11.65v80.86h-30.69V45.89Z"/>
      <path class="cls-1" d="M1263.38,168.86c0-22.18,17.92-35.39,47.94-35.39,9.63,0,19.26,1.57,28.45,4.48v-8.29c0-13.44-8.29-20.38-24.64-20.38-9.86,0-20.83,3.14-35.62,9.63l-11.2-22.62c18.37-8.51,35.17-12.54,51.97-12.54,31.58,0,49.73,15.68,49.73,43.23v75.71h-30.24v-8.06c-9.86,6.94-20.38,10.08-33.82,10.08-25.09,0-42.56-14.56-42.56-35.84ZM1314,182.75c10.08,0,18.59-2.46,25.76-7.39v-17.47c-7.62-2.91-15.68-4.26-24.64-4.26-14.11,0-22.4,5.6-22.4,14.56s8.29,14.56,21.28,14.56Z"/>
      <path class="cls-1" d="M1393.3,85.98h30.69v12.77c7.39-10.08,18.14-15.46,31.14-15.46,6.05.22,9.63.9,12.77,2.69v26.88c-4.48-2.02-10.08-3.14-15.68-3.14-11.87,0-22.4,6.05-28.22,17.47v75.49h-30.69v-116.7Z"/>
      <path class="cls-1" d="M1502.16,111.74h-23.97v-25.76h23.97v-29.79l30.69-6.94v36.74h33.15v25.76h-33.15v51.74c0,10.98,4.26,15.01,16.13,15.01,5.82,0,10.3-.67,16.35-2.69v25.09c-6.5,2.02-17.02,3.58-23.74,3.58-25.98,0-39.42-11.87-39.42-34.72v-58.02Z"/>
    </g>
  </g>
  <g id="Layer_3" data-name="Layer 3">
    <path class="cls-2" d="M43,85.33v126.01l-12.1,3.63c-2.33.69-4.66,1.02-6.94,1.02-6.8,0-13.14-2.93-17.58-7.72-.52-.56-1.02-1.15-1.49-1.76-1.41-1.84-2.56-3.9-3.39-6.12-.27-.74-.51-1.51-.72-2.28-.51-1.95-.78-4-.78-6.13v-75.89c0-10.6,6.95-19.94,17.1-22.99l25.9-7.77ZM152.22,17.89c-.1-.39-.22-.78-.34-1.16-.12-.38-.25-.75-.38-1.12-.28-.74-.59-1.47-.94-2.17-1.2-2.46-2.82-4.67-4.74-6.55-.55-.54-1.12-1.05-1.72-1.53-4.17-3.37-9.45-5.36-15.05-5.36h-.01c-2.28,0-4.61.33-6.94,1.03l-42,12.6c-10.15,3.04-17.1,12.39-17.1,22.99v191.36c0,2.13.27,4.19.78,6.13.1.39.22.78.34,1.16.12.38.25.75.38,1.12.28.74.59,1.47.94,2.17,1.2,2.46,2.82,4.67,4.74,6.55.55.54,1.12,1.05,1.72,1.53,4.17,3.38,9.46,5.36,15.06,5.36,2.28,0,4.61-.33,6.94-1.03l12.1-3.63v-104.24c0-6.42,1.37-12.64,4-18.35,1.27-2.77,2.85-5.42,4.7-7.92,5.69-7.65,13.53-13.14,22.66-15.88l15.64-4.69V24.02c0-2.13-.27-4.19-.78-6.13ZM215.97,129.38c0-.15-.01-.31-.02-.46-.02-.32-.05-.63-.08-.94-.04-.42-.09-.82-.16-1.23-.05-.37-.12-.74-.19-1.1-.02-.09-.04-.18-.06-.27-.07-.34-.15-.68-.24-1.01-.1-.39-.22-.78-.34-1.16-.12-.38-.25-.75-.38-1.12-.28-.74-.59-1.47-.94-2.17-.38-.78-.81-1.54-1.27-2.27-.15-.24-.31-.48-.47-.71-.02-.04-.05-.07-.08-.1-.17-.26-.35-.51-.53-.75-.06-.07-.11-.14-.17-.21-.15-.21-.32-.42-.49-.62-.3-.37-.6-.72-.93-1.06-.26-.28-.53-.56-.8-.83-.55-.54-1.12-1.05-1.72-1.53-.3-.24-.61-.47-.91-.7-.31-.23-.63-.45-.95-.66-.31-.21-.63-.41-.95-.6-.01-.01-.03-.02-.04-.02-.32-.2-.65-.39-.99-.56-.32-.17-.65-.34-.99-.5l-.06-.03c-.34-.16-.68-.31-1.03-.46-.35-.15-.71-.29-1.07-.42h0c-.36-.13-.73-.25-1.1-.36-.3-.1-.61-.19-.91-.26-.18-.05-.36-.1-.55-.14-.22-.05-.44-.1-.66-.15-.09-.02-.19-.04-.29-.06-.27-.05-.54-.1-.82-.14-.48-.08-.97-.14-1.47-.19-.35-.04-.71-.06-1.07-.08-.4-.02-.79-.03-1.19-.03-2.28,0-4.61.33-6.94,1.03l-12.1,3.63-20,6-9.9,2.97c-10.15,3.04-17.1,12.39-17.1,22.99v120.88c0,.38.01.75.03,1.12,0,.15.01.31.02.46.02.32.05.63.08.94.04.42.09.82.16,1.23.05.37.12.74.19,1.1.02.09.04.18.06.27.07.34.15.68.24,1.01.1.39.22.78.34,1.16.12.38.25.75.38,1.12.28.74.59,1.47.94,2.17.38.78.81,1.54,1.27,2.27.15.24.31.48.47.71.02.04.05.07.08.1.17.26.35.51.53.75.06.07.11.14.17.21.15.21.32.42.49.62.3.37.6.72.93,1.06.26.28.53.56.8.83.55.54,1.12,1.05,1.72,1.53.3.24.61.47.91.7.31.23.63.45.95.66.31.21.63.41.95.6.01.01.03.02.04.02.32.2.65.39.99.56.32.17.65.34.99.5l.06.03c.34.16.68.31,1.03.46.35.15.71.29,1.07.42h0c.36.13.73.25,1.1.36.3.1.61.19.91.26.18.05.36.1.55.14.22.05.44.1.66.15.09.02.19.04.29.06.27.05.54.1.82.14.48.08.97.14,1.47.19.35.04.71.06,1.07.08.4.02.79.03,1.19.03,2.28,0,4.61-.33,6.94-1.03l42-12.6c10.15-3.04,17.1-12.39,17.1-22.99v-120.88c0-.38-.01-.75-.03-1.12Z"/>
  </g>
</svg>