<svg xmlns="http://www.w3.org/2000/svg" fill="none" class="w_var(--icon-size,_16px) h_var(--icon-size,_16px)" style="--icon-size:32px" viewBox="0 0 32 32"><mask id="a" width="22" height="22" x="5" y="5" maskUnits="userSpaceOnUse" style="mask-type:luminance"><path fill="#fff" d="M26.88 5.12H5.12v21.76h21.76V5.12Z"/></mask><g fill-rule="evenodd" clip-rule="evenodd" mask="url(#a)"><path fill="url(#b)" d="m26.82 11.908-.001-.778a29.16 29.16 0 0 0-.01-.654 9.499 9.499 0 0 0-.125-1.425 4.815 4.815 0 0 0-.447-1.356 4.56 4.56 0 0 0-1.993-1.992 4.826 4.826 0 0 0-1.354-.447 9.506 9.506 0 0 0-1.426-.125 29.706 29.706 0 0 0-.654-.01H11.13c-.218.002-.436.004-.654.01a9.507 9.507 0 0 0-1.426.126 4.801 4.801 0 0 0-1.354.447 4.56 4.56 0 0 0-1.993 1.992c-.22.434-.361.878-.447 1.355-.084.47-.112.95-.125 1.425-.006.218-.008.437-.01.655V20.809c.002.218.004.436.01.655.013.475.041.954.125 1.425.086.477.226.921.447 1.355a4.559 4.559 0 0 0 1.993 1.992c.433.22.877.36 1.354.447.47.084.95.113 1.426.125.218.006.436.009.654.01.26.002.519.001.778.001h8.124l.777-.001c.218-.001.436-.004.655-.01a9.509 9.509 0 0 0 1.425-.125 4.802 4.802 0 0 0 1.355-.447 4.558 4.558 0 0 0 1.992-1.992c.22-.434.361-.878.447-1.355.084-.47.113-.95.125-1.425.006-.219.009-.437.01-.655.002-.26.001-.518.001-.778v-8.123Z"/><path fill="#fff" d="M20.46 8.435c-.052.005-.518.088-.574.1l-6.45 1.3-.002.001a.898.898 0 0 0-.402.181.656.656 0 0 0-.217.419c-.005.036-.014.11-.014.218v8.072c0 .19-.016.372-.143.528-.128.156-.286.203-.471.24l-.421.086c-.533.107-.88.18-1.194.302-.3.116-.525.264-.704.453a1.7 1.7 0 0 0-.45 1.349c.043.403.224.789.536 1.074.21.193.473.34.783.401.32.065.663.042 1.164-.059a2.37 2.37 0 0 0 .753-.278c.235-.138.436-.323.594-.549.158-.226.26-.477.316-.744.057-.276.071-.525.071-.8v-7c0-.376.106-.475.409-.548 0 0 5.361-1.081 5.611-1.13.35-.067.514.032.514.398v4.78c0 .189-.002.38-.131.537-.128.156-.286.203-.47.24l-.422.086c-.533.107-.88.18-1.194.302-.3.116-.525.264-.704.452a1.71 1.71 0 0 0-.462 1.35c.042.403.236.788.548 1.073.21.193.473.336.783.398.321.065.664.042 1.164-.059a2.36 2.36 0 0 0 .753-.274c.235-.139.437-.324.594-.55.158-.225.26-.476.316-.744.058-.275.06-.524.06-.799V9.006c.001-.372-.195-.6-.544-.57Z"/></g><defs><linearGradient id="b" x1="15.97" x2="15.97" y1="26.736" y2="5.588" gradientUnits="userSpaceOnUse"><stop stop-color="#FA233B"/><stop offset="1" stop-color="#FB5C74"/></linearGradient></defs></svg>