<svg xmlns="http://www.w3.org/2000/svg" fill="none" class="w_var(--icon-size,_16px) h_var(--icon-size,_16px)" style="--icon-size:32px" viewBox="0 0 32 32"><path fill="url(#a)" d="m17.014 23.27 1.875-.16s1.476-.08 1.476-1.974c0-1.895-.977-3.61-2.613-3.61h-1.795l1.057 5.743ZM15.44 5.32c5.764-.08 7.08 4.428 7.08 7.44 0 3.011-2.354 3.432-2.354 3.432 2.174.341 3.909 2.271 3.909 6.14 0 3.87-3.749 4.109-3.749 4.109l-6.302.44-3.451-15c0-1.136.758-2.054 2.254-2.054 1.495 0 1.794 1.357 1.794 1.357l.68 3.091h1.974c.219 0 1.954-.42 1.356-3.012-.599-2.592-2.613-2.632-2.613-2.632H11.23c-1.595 0-2.373-1.376-2.373-1.376L7.68 5.12l7.759.2Z"/><defs><linearGradient id="a" x1="5.12" x2="26.88" y1="5.12" y2="26.88" gradientUnits="userSpaceOnUse"><stop stop-color="#CC008C"/><stop offset=".22" stop-color="#F230A4"/><stop offset=".485" stop-color="#FF552A"/><stop offset=".795" stop-color="#FFBB28"/><stop offset="1" stop-color="#FF8F43"/></linearGradient></defs></svg>