<svg xmlns="http://www.w3.org/2000/svg" fill="none" class="w_var(--icon-size,_16px) h_var(--icon-size,_16px)" style="--icon-size:32px" viewBox="0 0 32 32"><path fill="#3F3FFF" d="M22.575 5.12c-.125 0-.454.218-.81.384a8.094 8.094 0 0 1-1.07.4c-.555.164-1.048.265-1.961.265-.757 0-1.663-.133-2.77-.414a20.797 20.797 0 0 0-1.51-.33 8.499 8.499 0 0 0-1.48-.145c-.681 0-1.335.075-1.96.225a7.492 7.492 0 0 0-1.899.74c-.105.059-.155.155-.155.28v3.486c0 .15.068.218.187.218.076 0 .138-.041.166-.058.427-.266 1.037-.523 1.701-.689.64-.164 1.3-.248 1.96-.25.467 0 .95.047 1.48.14.529.094 1.03.213 1.51.327 1.248.298 2.167.436 2.77.436.635 0 1.275-.104 1.96-.311.368-.11.726-.248 1.072-.413.28-.134.544-.286.795-.459.105-.071.156-.15.156-.28V5.293c0-.11-.038-.173-.142-.173Zm-.107 7.878h-8.684c-1.452 0-2.62.442-3.501 1.323-.882.883-1.323 2.05-1.323 3.502v8.808c0 .167.083.25.25.25h3.548c.166 0 .25-.083.25-.25V18.6c0-.498.144-.892.435-1.183.29-.29.684-.435 1.183-.435h7.843c.166 0 .25-.083.25-.25v-3.486c-.002-.165-.085-.249-.25-.249Z"/></svg>