<svg xmlns="http://www.w3.org/2000/svg" fill="none" class="w_var(--icon-size,_16px) h_var(--icon-size,_16px)" style="--icon-size:32px" viewBox="0 0 32 32"><path fill="#0096FF" fill-rule="evenodd" d="M19.886 5.261a1.054 1.054 0 0 1 1.577.81l.005.104v15.414c0 2.919-2.414 5.291-5.38 5.291a5.436 5.436 0 0 1-3.95-1.7 1.743 1.743 0 0 1 1.255-2.939c.439-.004.862.157 1.188.45l.102.1c.363.387.863.6 1.406.6.995 0 1.814-.739 1.883-1.673l.005-.128v-.927c-.557.29-1.176.44-1.803.44a5.298 5.298 0 0 1-5.29-5.097l-.004-.193V10.66a5.298 5.298 0 0 1 5.293-5.29c.77 0 1.472.222 2.093.603l.184.119 1.436-.83ZM16.174 8.86c-.95 0-1.732.74-1.799 1.673l-.004.128v5.153c0 .993.809 1.801 1.803 1.801 1.18 0 1.752-.9 1.8-1.802l.003-.122v-4.906c0-.941-.568-1.926-1.803-1.926Z" clip-rule="evenodd"/></svg>