<svg xmlns="http://www.w3.org/2000/svg" fill="none" class="w_var(--icon-size,_16px) h_var(--icon-size,_16px)" style="--icon-size:20px" viewBox="0 0 32 32"><mask id="a" width="20" height="22" x="6" y="5" maskUnits="userSpaceOnUse" style="mask-type:luminance"><path fill="#fff" d="M25.6 5.12H6.4v21.76h19.2V5.12Z"/></mask><g mask="url(#a)"><path fill="#fff" d="M25.175 8.08a2.945 2.945 0 1 1-5.89 0 2.945 2.945 0 0 1 5.89 0ZM14.475 10.607a7.836 7.836 0 1 0 0 15.672 7.836 7.836 0 0 0 0-15.672Zm0 4.416a3.424 3.424 0 0 1 3.42 3.42 3.425 3.425 0 0 1-3.42 3.42 3.424 3.424 0 0 1-3.42-3.42 3.424 3.424 0 0 1 3.42-3.42Z"/><path fill="#04E532" d="M14.475 10.607a7.836 7.836 0 1 0 0 15.672 7.836 7.836 0 0 0 0-15.672Zm0 4.416a3.424 3.424 0 0 1 3.42 3.42 3.425 3.425 0 0 1-3.42 3.42 3.424 3.424 0 0 1-3.42-3.42 3.424 3.424 0 0 1 3.42-3.42ZM25.175 8.08a2.945 2.945 0 1 1-5.89 0 2.945 2.945 0 0 1 5.89 0Z"/></g></svg>