<svg xmlns="http://www.w3.org/2000/svg" fill="none" class="w_var(--icon-size,_16px) h_var(--icon-size,_16px)" style="--icon-size:32px" viewBox="0 0 32 32"><mask id="a" width="22" height="22" x="5" y="5" maskUnits="userSpaceOnUse" style="mask-type:luminance"><path fill="#fff" d="M26.88 5.12H5.12v21.76h21.76V5.12Z"/></mask><g mask="url(#a)"><path fill="#1ED760" fill-rule="evenodd" d="M5.12 16C5.12 10.182 9.994 5.46 16 5.46c6.006 0 10.88 4.722 10.88 10.54 0 5.818-4.874 10.54-10.88 10.54-6.006 0-10.88-4.722-10.88-10.54Zm17.272-1.224c.198.11.338.166.566.166.535 0 1.018-.413 1.018-.99 0-.506-.224-.77-.566-.961-2.453-1.386-5.809-2.032-9.011-2.032-1.882 0-3.61.209-5.155.646-.395.11-.763.438-.763 1.016 0 .565.443 1.003 1.022 1.003.175 0 .342-.047.484-.088l.082-.022c3.615-.978 9.2-.544 12.323 1.262Zm-1.275 3.256c.138.073.281.148.481.148.478 0 .847-.37.851-.829 0-.37-.14-.633-.496-.837-2.167-1.25-4.918-1.934-7.765-1.934a15.2 15.2 0 0 0-4.29.578c-.452.124-.68.425-.68.88s.381.825.85.825c.146 0 .246-.03.373-.068.045-.014.094-.028.15-.043 3.637-.956 7.726-.323 10.467 1.25l.059.03Zm-1.169 2.783c.172.098.286.153.47.153a.653.653 0 0 0 .667-.654c0-.387-.158-.536-.426-.702-3.132-1.814-6.804-1.882-10.397-1.113-.33.068-.597.276-.597.714 0 .344.268.671.693.671.1 0 .26-.042.406-.08l.116-.03c3.146-.625 6.331-.557 9.068 1.041Z" clip-rule="evenodd"/></g></svg>